<svg id="Calque_1" data-name="Calque 1" xmlns="http://www.w3.org/2000/svg" viewBox="0 0 387.48 140.72"><defs><style>.cls-1{fill:#59539f;}.cls-2{fill:#58539e;}.cls-3{fill:#f39506;}.cls-4{fill:#4f4e50;}</style></defs><title>HESTIALABS_logo_vectorise</title><path class="cls-1" d="M56.84,125.79Z" transform="translate(0 -0.21)"/><path class="cls-2" d="M56.84,118h0Z" transform="translate(0 -0.21)"/><path class="cls-2" d="M126.79,38.16a24.56,24.56,0,0,1-34,7.22,24.07,24.07,0,0,1-3.17-2.45s-.16-.16-.47-.43c-1.52-1.29-6.55-5-12.68-4a39.07,39.07,0,0,0-6.75,1.78c-2,.68-3,1.11-4.71,1.82-7.83,3.3-7.44,9.8-8,12.28v0a28.65,28.65,0,0,1-1.49,5.39,29,29,0,0,1-1.27,2.83c-.9,2.7-5.66,10.14-.24,20.52,1.17,2.25,2.88,5.73,4.33,8.22a37,37,0,0,0,4.85,7.12c6.67,7.73,12.36,6.86,14.62,7.68a17.62,17.62,0,1,1-21.27,13c.09-.39.22-.77.34-1.14h0a.39.39,0,0,1,0-.06s0,0,0-.06a.53.53,0,0,0,0-.15,3.11,3.11,0,0,0,.12-.39h0a24,24,0,0,0-1-14.51,41.07,41.07,0,0,0-4.16-8.39c-1.13-1.79-2.39-3.8-4.62-7-6.73-9.58-14.16-8.88-17-9.31A28.7,28.7,0,1,1,39,22.72,28.82,28.82,0,0,1,47.66,28l.53.49.38.35c.16.17.34.34.53.52,2.46,2.3,6.87,5.86,13.58,4.38,1.8-.4,2.89-.66,4.9-1.24A38.55,38.55,0,0,0,74.11,30c5.7-2.72,7.68-9,8.16-10.85a1.8,1.8,0,0,0,0-.19c0-.09,0-.16.05-.22s0,0,0-.05a.24.24,0,0,1,0-.08,24.57,24.57,0,1,1,44.39,19.54Z" transform="translate(0 -0.21)"/><ellipse class="cls-3" cx="80.79" cy="71.74" rx="14.14" ry="13.99"/><path class="cls-4" d="M137.34,102h-8.7V83.89h-17V102H103V59.76h8.7V76.87h17V59.76h8.7Z" transform="translate(0 -0.21)"/><path class="cls-4" d="M158.54,102.56a15.42,15.42,0,0,1-11.24-4.23Q143,94.1,143,87.05v-.81a19,19,0,0,1,1.83-8.46A13.38,13.38,0,0,1,150,72a14.56,14.56,0,0,1,7.64-2q6.44,0,10.14,4.06t3.69,11.52V89h-20A7.8,7.8,0,0,0,153.91,94a7.4,7.4,0,0,0,5.18,1.86,9,9,0,0,0,7.57-3.51l4.12,4.61a12.54,12.54,0,0,1-5.11,4.16A16.64,16.64,0,0,1,158.54,102.56Zm-1-25.78a5.25,5.25,0,0,0-4.05,1.69,8.8,8.8,0,0,0-2,4.84h11.66v-.67a6.23,6.23,0,0,0-1.51-4.33A5.41,5.41,0,0,0,157.58,76.78Z" transform="translate(0 -0.21)"/><path class="cls-4" d="M192.9,93.31a2.71,2.71,0,0,0-1.52-2.42,17.27,17.27,0,0,0-4.89-1.58Q175.3,87,175.29,79.8a8.64,8.64,0,0,1,3.47-7,14,14,0,0,1,9.06-2.8q6,0,9.56,2.82a8.84,8.84,0,0,1,3.58,7.3h-8.38a4.09,4.09,0,0,0-1.16-3A4.92,4.92,0,0,0,187.79,76a5,5,0,0,0-3.27,1,3,3,0,0,0-1.16,2.44,2.58,2.58,0,0,0,1.32,2.25,13.66,13.66,0,0,0,4.45,1.48,35.9,35.9,0,0,1,5.28,1.4Q201,87,201.05,93a8.18,8.18,0,0,1-3.69,7,15.85,15.85,0,0,1-9.51,2.65,16.69,16.69,0,0,1-7-1.4,11.8,11.8,0,0,1-4.8-3.86A9,9,0,0,1,174.31,92h7.94a4.36,4.36,0,0,0,1.66,3.42A6.57,6.57,0,0,0,188,96.62a6.16,6.16,0,0,0,3.64-.91A2.85,2.85,0,0,0,192.9,93.31Z" transform="translate(0 -0.21)"/><path class="cls-4" d="M216.18,62.89V70.6h5.37v6.15h-5.37V92.41a3.72,3.72,0,0,0,.67,2.5,3.34,3.34,0,0,0,2.55.75,14,14,0,0,0,2.47-.2v6.35a17.4,17.4,0,0,1-5.08.75q-8.82,0-9-8.9V76.75h-4.58V70.6h4.58V62.89Z" transform="translate(0 -0.21)"/><path class="cls-4" d="M225.86,62.48a4.13,4.13,0,0,1,1.26-3.1,5.43,5.43,0,0,1,6.86,0,4.42,4.42,0,0,1,0,6.23,5.38,5.38,0,0,1-6.82,0A4.1,4.1,0,0,1,225.86,62.48Zm8.9,39.5h-8.41V70.6h8.41Z" transform="translate(0 -0.21)"/><path class="cls-4" d="M259.56,102a9.33,9.33,0,0,1-.85-2.81,10.14,10.14,0,0,1-7.91,3.39,11.14,11.14,0,0,1-7.65-2.66,8.6,8.6,0,0,1-3-6.73,8.88,8.88,0,0,1,3.7-7.66q3.7-2.67,10.69-2.7h3.86V81a5.19,5.19,0,0,0-1.12-3.48,4.4,4.4,0,0,0-3.52-1.3,5,5,0,0,0-3.32,1A3.45,3.45,0,0,0,249.2,80h-8.38a8.44,8.44,0,0,1,1.68-5,11.17,11.17,0,0,1,4.76-3.64,17.33,17.33,0,0,1,6.9-1.32q5.8,0,9.21,2.92a10.19,10.19,0,0,1,3.41,8.19v13.6a15.06,15.06,0,0,0,1.24,6.76V102Zm-6.94-5.83a7.27,7.27,0,0,0,3.43-.82,5.48,5.48,0,0,0,2.32-2.22V87.72h-3.14c-4.19,0-6.43,1.45-6.7,4.35l0,.49a3.34,3.34,0,0,0,1.1,2.58A4.25,4.25,0,0,0,252.62,96.15Z" transform="translate(0 -0.21)"/><path class="cls-4" d="M279.52,99h20.86v3H275.93V59.76h3.59Z" transform="translate(0 -0.21)"/><path class="cls-4" d="M323.25,102a16.36,16.36,0,0,1-.67-4.38,12.1,12.1,0,0,1-4.65,3.67,14.31,14.31,0,0,1-6,1.29,10.55,10.55,0,0,1-7.33-2.52,8.23,8.23,0,0,1-2.79-6.38,8.41,8.41,0,0,1,3.81-7.25q3.81-2.67,10.63-2.67h6.29V80.17a6.88,6.88,0,0,0-2.07-5.29A8.6,8.6,0,0,0,314.43,73a9.42,9.42,0,0,0-6,1.86,5.5,5.5,0,0,0-2.38,4.46l-3.48,0a8.08,8.08,0,0,1,3.48-6.49A13.44,13.44,0,0,1,314.61,70q5.25,0,8.28,2.63A9.38,9.38,0,0,1,326,80V94.82a18.38,18.38,0,0,0,1,6.82V102Zm-10.91-2.49a11.64,11.64,0,0,0,6.22-1.68,9.86,9.86,0,0,0,4-4.5v-6.9h-6.2c-3.47,0-6.17.67-8.13,1.9a5.69,5.69,0,0,0-2.92,5.06,5.62,5.62,0,0,0,1.95,4.38A7.38,7.38,0,0,0,312.34,99.49Z" transform="translate(0 -0.21)"/><path class="cls-4" d="M359,86.61q0,7.35-3.24,11.65a10.39,10.39,0,0,1-8.74,4.3q-6.56,0-9.91-4.87L337,102h-3.25V57.44h3.45V75.16A10.92,10.92,0,0,1,347,70a10.48,10.48,0,0,1,8.8,4.25Q359,78.51,359,86.09ZM355.55,86c0-4.13-.8-7.33-2.4-9.58A7.87,7.87,0,0,0,346.36,73a9.58,9.58,0,0,0-5.66,1.64,10,10,0,0,0-3.51,4.8V93.63q2.61,5.93,9.23,5.92a7.77,7.77,0,0,0,6.71-3.4Q355.56,92.76,355.55,86Z" transform="translate(0 -0.21)"/><path class="cls-4" d="M384,94a5,5,0,0,0-2.07-4.15,16.13,16.13,0,0,0-6.26-2.45,28.49,28.49,0,0,1-6.48-2,8.63,8.63,0,0,1-3.42-2.8,7,7,0,0,1-1.12-4,7.45,7.45,0,0,1,3.11-6.13A12.49,12.49,0,0,1,375.7,70a12.92,12.92,0,0,1,8.43,2.6,8.33,8.33,0,0,1,3.18,6.77h-3.48a5.61,5.61,0,0,0-2.31-4.58,10.41,10.41,0,0,0-11.31-.31,4.72,4.72,0,0,0-2.08,4,4.28,4.28,0,0,0,1.73,3.64,18.35,18.35,0,0,0,6.29,2.37A29.45,29.45,0,0,1,383,86.76a8.88,8.88,0,0,1,3.38,2.93,8.06,8.06,0,0,1-2.11,10.5,13.69,13.69,0,0,1-8.36,2.37A14,14,0,0,1,367,99.91a8.18,8.18,0,0,1-3.41-6.71h3.48a6,6,0,0,0,2.57,4.74,10.49,10.49,0,0,0,6.25,1.69A9.91,9.91,0,0,0,381.77,98,4.8,4.8,0,0,0,384,94Z" transform="translate(0 -0.21)"/><path class="cls-4" d="M103.59,137.12V119.27h-3.24V117.5h3.24v-2.38a6.44,6.44,0,0,1,1.53-4.62,5.62,5.62,0,0,1,4.28-1.62,8.09,8.09,0,0,1,2.3.31l-.16,1.8a8.28,8.28,0,0,0-2-.22,3.52,3.52,0,0,0-2.79,1.12,4.57,4.57,0,0,0-1,3.17v2.44h4.68v1.77h-4.68v17.85Z" transform="translate(0 -0.21)"/><path class="cls-4" d="M112.2,127a11.57,11.57,0,0,1,1.1-5.1,8.23,8.23,0,0,1,7.65-4.79,8.07,8.07,0,0,1,6.34,2.75,10.59,10.59,0,0,1,2.43,7.28v.46a11.69,11.69,0,0,1-1.09,5.12,8.24,8.24,0,0,1-3.1,3.51,8.48,8.48,0,0,1-4.55,1.23,8.06,8.06,0,0,1-6.34-2.75,10.57,10.57,0,0,1-2.44-7.28Zm2.18.6a8.91,8.91,0,0,0,1.82,5.77,6.16,6.16,0,0,0,9.54,0,9.16,9.16,0,0,0,1.82-6V127a10,10,0,0,0-.83-4.12,6.76,6.76,0,0,0-2.34-2.89,6,6,0,0,0-3.44-1,5.8,5.8,0,0,0-4.74,2.28,9.22,9.22,0,0,0-1.83,6Z" transform="translate(0 -0.21)"/><path class="cls-4" d="M142.34,119.35a7.66,7.66,0,0,0-1.47-.13,5.3,5.3,0,0,0-3.43,1.13,6.25,6.25,0,0,0-2,3.29v13.48h-2.16V117.5h2.13l0,3.12a5.76,5.76,0,0,1,5.53-3.49,3.53,3.53,0,0,1,1.44.24Z" transform="translate(0 -0.21)"/><path class="cls-4" d="M152.07,127.13a11.85,11.85,0,0,1,2-7.29,6.59,6.59,0,0,1,5.54-2.71,6.83,6.83,0,0,1,6.06,3.14v-11h2.16v27.86h-2l-.09-2.61a7,7,0,0,1-6.13,3,6.54,6.54,0,0,1-5.47-2.73,11.9,11.9,0,0,1-2.08-7.37Zm2.2.38a10.27,10.27,0,0,0,1.5,5.92A4.9,4.9,0,0,0,160,135.6a5.83,5.83,0,0,0,5.69-3.54v-9.21a5.8,5.8,0,0,0-5.66-3.83,4.94,4.94,0,0,0-4.26,2.15Q154.28,123.32,154.27,127.51Z" transform="translate(0 -0.21)"/><path class="cls-4" d="M185,137.12a10.58,10.58,0,0,1-.42-2.74,7.59,7.59,0,0,1-2.91,2.3,9,9,0,0,1-3.74.8,6.54,6.54,0,0,1-4.58-1.58,5.12,5.12,0,0,1-1.75-4,5.24,5.24,0,0,1,2.38-4.53,11.49,11.49,0,0,1,6.65-1.67h3.94v-2.23a4.33,4.33,0,0,0-1.3-3.31,5.36,5.36,0,0,0-3.78-1.2,5.92,5.92,0,0,0-3.76,1.16,3.43,3.43,0,0,0-1.48,2.79l-2.18,0a5,5,0,0,1,2.18-4.05,8.39,8.39,0,0,1,5.35-1.72,7.68,7.68,0,0,1,5.18,1.64,5.9,5.9,0,0,1,1.94,4.58v9.29a11.46,11.46,0,0,0,.6,4.26v.22Zm-6.82-1.56a7.29,7.29,0,0,0,3.89-1.05,6.17,6.17,0,0,0,2.5-2.81v-4.32h-3.88a9.65,9.65,0,0,0-5.08,1.19,3.56,3.56,0,0,0-1.83,3.16,3.49,3.49,0,0,0,1.22,2.74A4.6,4.6,0,0,0,178.22,135.56Z" transform="translate(0 -0.21)"/><path class="cls-4" d="M195,112.47v5h4.07v1.77H195v13.09a4.16,4.16,0,0,0,.59,2.44,2.3,2.3,0,0,0,2,.8,13.65,13.65,0,0,0,1.76-.18l.09,1.76a7.21,7.21,0,0,1-2.32.3,3.89,3.89,0,0,1-3.25-1.29,6.17,6.17,0,0,1-1-3.82v-13.1h-3.61V117.5h3.61v-5Z" transform="translate(0 -0.21)"/><path class="cls-4" d="M215,137.12a10.65,10.65,0,0,1-.41-2.74,7.74,7.74,0,0,1-2.91,2.3,9.05,9.05,0,0,1-3.75.8,6.54,6.54,0,0,1-4.58-1.58,5.12,5.12,0,0,1-1.75-4,5.25,5.25,0,0,1,2.39-4.53,11.43,11.43,0,0,1,6.64-1.67h3.94v-2.23a4.29,4.29,0,0,0-1.3-3.31,5.36,5.36,0,0,0-3.78-1.2,5.87,5.87,0,0,0-3.75,1.16,3.42,3.42,0,0,0-1.49,2.79l-2.18,0a5,5,0,0,1,2.18-4.05,8.39,8.39,0,0,1,5.35-1.72,7.68,7.68,0,0,1,5.18,1.64,5.94,5.94,0,0,1,2,4.58v9.29a11.71,11.71,0,0,0,.59,4.26v.22Zm-6.82-1.56a7.29,7.29,0,0,0,3.89-1.05,6.17,6.17,0,0,0,2.5-2.81v-4.32H210.7a9.65,9.65,0,0,0-5.08,1.19,3.56,3.56,0,0,0-1.83,3.16,3.52,3.52,0,0,0,1.22,2.74A4.6,4.6,0,0,0,208.19,135.56Z" transform="translate(0 -0.21)"/><path class="cls-4" d="M237,135.65a5.75,5.75,0,0,0,3.8-1.28,4.48,4.48,0,0,0,1.66-3.31h2.09a6.25,6.25,0,0,1-1.13,3.28,7.08,7.08,0,0,1-2.75,2.31,8.33,8.33,0,0,1-3.67.83,7.57,7.57,0,0,1-6.12-2.68,10.84,10.84,0,0,1-2.26-7.22v-.65a12.25,12.25,0,0,1,1-5.14,7.82,7.82,0,0,1,2.91-3.44,8,8,0,0,1,4.43-1.22,7.56,7.56,0,0,1,5.33,1.93,7,7,0,0,1,2.24,5.06h-2.09a5.26,5.26,0,0,0-5.48-5.14,5.4,5.4,0,0,0-4.56,2.13,9.58,9.58,0,0,0-1.62,5.94v.64a9.43,9.43,0,0,0,1.62,5.86A5.45,5.45,0,0,0,237,135.65Z" transform="translate(0 -0.21)"/><path class="cls-4" d="M246.7,127a11.57,11.57,0,0,1,1.1-5.1,8.23,8.23,0,0,1,7.65-4.79,8.07,8.07,0,0,1,6.34,2.75,10.59,10.59,0,0,1,2.43,7.28v.46a11.69,11.69,0,0,1-1.09,5.12,8.17,8.17,0,0,1-3.1,3.51,8.48,8.48,0,0,1-4.55,1.23,8.06,8.06,0,0,1-6.34-2.75,10.57,10.57,0,0,1-2.44-7.28Zm2.18.6a8.91,8.91,0,0,0,1.82,5.77,6.16,6.16,0,0,0,9.54,0,9.16,9.16,0,0,0,1.83-6V127a10,10,0,0,0-.84-4.12,6.62,6.62,0,0,0-2.34-2.89,6,6,0,0,0-3.44-1,5.8,5.8,0,0,0-4.74,2.28,9.22,9.22,0,0,0-1.83,6Z" transform="translate(0 -0.21)"/><path class="cls-4" d="M270.21,137.12H268V109.26h2.18Z" transform="translate(0 -0.21)"/><path class="cls-4" d="M277.6,137.12h-2.18V109.26h2.18Z" transform="translate(0 -0.21)"/><path class="cls-4" d="M290.17,137.48a8.55,8.55,0,0,1-4.53-1.23,8.39,8.39,0,0,1-3.15-3.44,10.69,10.69,0,0,1-1.12-4.94v-.78a11.6,11.6,0,0,1,1.1-5.1,8.78,8.78,0,0,1,3-3.56,7.59,7.59,0,0,1,4.25-1.3,7.08,7.08,0,0,1,5.66,2.44,9.89,9.89,0,0,1,2.1,6.67v1.21h-14v.42a8.25,8.25,0,0,0,1.91,5.56,6.1,6.1,0,0,0,4.82,2.22,7.1,7.1,0,0,0,3.07-.63,6.76,6.76,0,0,0,2.42-2l1.36,1A7.9,7.9,0,0,1,290.17,137.48Zm-.4-18.5a5.42,5.42,0,0,0-4.13,1.8,8.27,8.27,0,0,0-2,4.82h11.77v-.23a7.24,7.24,0,0,0-1.61-4.61A5,5,0,0,0,289.77,119Z" transform="translate(0 -0.21)"/><path class="cls-4" d="M308.08,135.65a5.75,5.75,0,0,0,3.8-1.28,4.48,4.48,0,0,0,1.66-3.31h2.08a6.15,6.15,0,0,1-1.12,3.28,7.08,7.08,0,0,1-2.75,2.31,8.33,8.33,0,0,1-3.67.83A7.57,7.57,0,0,1,302,134.8a10.84,10.84,0,0,1-2.26-7.22v-.65a12.25,12.25,0,0,1,1-5.14,7.82,7.82,0,0,1,2.91-3.44,8,8,0,0,1,4.43-1.22,7.56,7.56,0,0,1,5.33,1.93,7,7,0,0,1,2.23,5.06h-2.08a5.26,5.26,0,0,0-5.48-5.14,5.4,5.4,0,0,0-4.56,2.13,9.58,9.58,0,0,0-1.62,5.94v.64a9.43,9.43,0,0,0,1.62,5.86A5.45,5.45,0,0,0,308.08,135.65Z" transform="translate(0 -0.21)"/><path class="cls-4" d="M322.4,112.47v5h4.07v1.77H322.4v13.09a4.16,4.16,0,0,0,.59,2.44,2.3,2.3,0,0,0,2,.8,13.65,13.65,0,0,0,1.76-.18l.09,1.76a7.21,7.21,0,0,1-2.32.3,3.89,3.89,0,0,1-3.25-1.29,6.17,6.17,0,0,1-1-3.82v-13.1h-3.61V117.5h3.61v-5Z" transform="translate(0 -0.21)"/><path class="cls-4" d="M329.91,111.83a1.44,1.44,0,0,1,.4-1,1.42,1.42,0,0,1,1.09-.42,1.44,1.44,0,0,1,1.09.42,1.41,1.41,0,0,1,.41,1,1.39,1.39,0,0,1-.41,1,1.47,1.47,0,0,1-1.09.41,1.46,1.46,0,0,1-1.09-.41A1.42,1.42,0,0,1,329.91,111.83Zm2.56,25.29h-2.18V117.5h2.18Z" transform="translate(0 -0.21)"/><path class="cls-4" d="M343.54,134.13l6-16.63h2.23l-7.32,19.62h-1.76l-7.37-19.62h2.23Z" transform="translate(0 -0.21)"/><path class="cls-4" d="M361.73,137.48a8.49,8.49,0,0,1-4.52-1.23,8.39,8.39,0,0,1-3.15-3.44,10.69,10.69,0,0,1-1.13-4.94v-.78A11.6,11.6,0,0,1,354,122a8.73,8.73,0,0,1,3.06-3.56,7.56,7.56,0,0,1,4.24-1.3,7.12,7.12,0,0,1,5.67,2.44,9.89,9.89,0,0,1,2.09,6.67v1.21h-14v.42a8.21,8.21,0,0,0,1.92,5.56,6.08,6.08,0,0,0,4.81,2.22,7.15,7.15,0,0,0,3.08-.63,6.94,6.94,0,0,0,2.42-2l1.36,1A7.92,7.92,0,0,1,361.73,137.48Zm-.4-18.5a5.4,5.4,0,0,0-4.12,1.8,8.27,8.27,0,0,0-2,4.82h11.77v-.23a7.19,7.19,0,0,0-1.62-4.61A5,5,0,0,0,361.33,119Z" transform="translate(0 -0.21)"/><path class="cls-4" d="M384.14,132.13a3.1,3.1,0,0,0-1.29-2.59,10.12,10.12,0,0,0-3.91-1.53,18,18,0,0,1-4.05-1.27,5.31,5.31,0,0,1-2.14-1.75,4.36,4.36,0,0,1-.7-2.51,4.65,4.65,0,0,1,1.94-3.83,7.83,7.83,0,0,1,5-1.52,8.09,8.09,0,0,1,5.27,1.63,5.2,5.2,0,0,1,2,4.23H384a3.51,3.51,0,0,0-1.45-2.86,6.46,6.46,0,0,0-7.07-.19,2.94,2.94,0,0,0-1.3,2.47,2.68,2.68,0,0,0,1.08,2.28,11.41,11.41,0,0,0,3.94,1.48,18.15,18.15,0,0,1,4.28,1.43,5.57,5.57,0,0,1,2.11,1.83,4.68,4.68,0,0,1,.69,2.59,4.73,4.73,0,0,1-2,4,8.59,8.59,0,0,1-5.24,1.48,8.75,8.75,0,0,1-5.55-1.66,5.08,5.08,0,0,1-2.14-4.2h2.18a3.79,3.79,0,0,0,1.61,3,6.5,6.5,0,0,0,3.9,1.06,6.13,6.13,0,0,0,3.67-1A3,3,0,0,0,384.14,132.13Z" transform="translate(0 -0.21)"/></svg>